<?xml version="1.0" encoding="UTF-8" standalone="no"?>
<!DOCTYPE svg PUBLIC "-//W3C//DTD SVG 1.1//EN" "http://www.w3.org/Graphics/SVG/1.1/DTD/svg11.dtd">
<svg xmlns:dc="http://purl.org/dc/elements/1.1/" xmlns:xl="http://www.w3.org/1999/xlink" version="1.1" xmlns="http://www.w3.org/2000/svg" viewBox="13.67323 8.003957 794.7008 616.1181" width="794.7008" height="616.1181">
  <defs/>
  <metadata> Produced by OmniGraffle 7.7.1 
    <dc:date>2018-06-24 18:07:45 +0000</dc:date>
  </metadata>
  <g id="Canvas_1" fill-opacity="1" stroke-dasharray="none" stroke="none" stroke-opacity="1" fill="none">
    <title>Canvas 1</title>
    <g id="Canvas_1: Layer 1">
      <title>Layer 1</title>
      <g id="Group_71">
        <g id="Graphic_70">
          <rect x="14.17323" y="8.503957" width="793.7008" height="615.1181" fill="white"/>
          <rect x="14.17323" y="8.503957" width="793.7008" height="615.1181" stroke="black" stroke-linecap="round" stroke-linejoin="round" stroke-width="1"/>
        </g>
        <g id="Group_50">
          <g id="Graphic_69">
            <path d="M 60.71515 39.531924 L 372.52624 39.531924 C 380.3539 39.531924 386.69944 45.87748 386.69944 53.705123 L 386.69944 138.74455 C 386.69944 146.5722 380.3539 152.91775 372.52624 152.91775 L 60.71515 152.91775 C 52.887507 152.91775 46.54195 146.5722 46.54195 138.74455 L 46.54195 53.705123 C 46.54195 45.87748 52.887507 39.531924 60.71515 39.531924 Z" fill="white"/>
            <path d="M 60.71515 39.531924 L 372.52624 39.531924 C 380.3539 39.531924 386.69944 45.87748 386.69944 53.705123 L 386.69944 138.74455 C 386.69944 146.5722 380.3539 152.91775 372.52624 152.91775 L 60.71515 152.91775 C 52.887507 152.91775 46.54195 146.5722 46.54195 138.74455 L 46.54195 53.705123 C 46.54195 45.87748 52.887507 39.531924 60.71515 39.531924 Z" stroke="black" stroke-linecap="round" stroke-linejoin="round" stroke-width="1"/>
          </g>
          <g id="Graphic_68">
            <path d="M 415.0459 39.531924 L 500.0853 39.531924 C 507.913 39.531924 514.2585 45.87748 514.2585 53.705123 L 514.2585 138.74455 C 514.2585 146.5722 507.913 152.91775 500.0853 152.91775 L 415.0459 152.91775 C 407.21826 152.91775 400.8727 146.5722 400.8727 138.74455 L 400.8727 53.705123 C 400.8727 45.87748 407.21826 39.531924 415.0459 39.531924 Z" fill="white"/>
            <path d="M 415.0459 39.531924 L 500.0853 39.531924 C 507.913 39.531924 514.2585 45.87748 514.2585 53.705123 L 514.2585 138.74455 C 514.2585 146.5722 507.913 152.91775 500.0853 152.91775 L 415.0459 152.91775 C 407.21826 152.91775 400.8727 146.5722 400.8727 138.74455 L 400.8727 53.705123 C 400.8727 45.87748 407.21826 39.531924 415.0459 39.531924 Z" stroke="black" stroke-linecap="round" stroke-linejoin="round" stroke-width="1"/>
          </g>
          <g id="Graphic_67">
            <path d="M 670.164 39.531924 L 755.2035 39.531924 C 763.0311 39.531924 769.3767 45.87748 769.3767 53.705123 L 769.3767 138.74455 C 769.3767 146.5722 763.0311 152.91775 755.2035 152.91775 L 670.164 152.91775 C 662.3364 152.91775 655.9908 146.5722 655.9908 138.74455 L 655.9908 53.705123 C 655.9908 45.87748 662.3364 39.531924 670.164 39.531924 Z" fill="white"/>
            <path d="M 670.164 39.531924 L 755.2035 39.531924 C 763.0311 39.531924 769.3767 45.87748 769.3767 53.705123 L 769.3767 138.74455 C 769.3767 146.5722 763.0311 152.91775 755.2035 152.91775 L 670.164 152.91775 C 662.3364 152.91775 655.9908 146.5722 655.9908 138.74455 L 655.9908 53.705123 C 655.9908 45.87748 662.3364 39.531924 670.164 39.531924 Z" stroke="black" stroke-linecap="round" stroke-linejoin="round" stroke-width="1"/>
          </g>
          <g id="Graphic_66">
            <path d="M 542.60497 39.531924 L 627.6444 39.531924 C 635.47204 39.531924 641.8176 45.87748 641.8176 53.705123 L 641.8176 138.74455 C 641.8176 146.5722 635.47204 152.91775 627.6444 152.91775 L 542.60497 152.91775 C 534.7773 152.91775 528.43177 146.5722 528.43177 138.74455 L 528.43177 53.705123 C 528.43177 45.87748 534.7773 39.531924 542.60497 39.531924 Z" fill="white"/>
            <path d="M 542.60497 39.531924 L 627.6444 39.531924 C 635.47204 39.531924 641.8176 45.87748 641.8176 53.705123 L 641.8176 138.74455 C 641.8176 146.5722 635.47204 152.91775 627.6444 152.91775 L 542.60497 152.91775 C 534.7773 152.91775 528.43177 146.5722 528.43177 138.74455 L 528.43177 53.705123 C 528.43177 45.87748 534.7773 39.531924 542.60497 39.531924 Z" stroke="black" stroke-linecap="round" stroke-linejoin="round" stroke-width="1"/>
          </g>
          <g id="Graphic_65">
            <path d="M 60.71515 167.091 L 627.6444 167.091 C 635.47204 167.091 641.8176 173.43655 641.8176 181.2642 L 641.8176 266.30362 C 641.8176 274.13126 635.47204 280.47682 627.6444 280.47682 L 60.71515 280.47682 C 52.887507 280.47682 46.54195 274.13126 46.54195 266.30362 L 46.54195 181.2642 C 46.54195 173.43655 52.887507 167.091 60.71515 167.091 Z" fill="white"/>
            <path d="M 60.71515 167.091 L 627.6444 167.091 C 635.47204 167.091 641.8176 173.43655 641.8176 181.2642 L 641.8176 266.30362 C 641.8176 274.13126 635.47204 280.47682 627.6444 280.47682 L 60.71515 280.47682 C 52.887507 280.47682 46.54195 274.13126 46.54195 266.30362 L 46.54195 181.2642 C 46.54195 173.43655 52.887507 167.091 60.71515 167.091 Z" stroke="black" stroke-linecap="round" stroke-linejoin="round" stroke-width="1"/>
          </g>
          <g id="Graphic_64">
            <path d="M 672.9987 171.34295 L 758.0381 171.34295 C 765.8657 171.34295 772.2113 177.6885 772.2113 185.51615 L 772.2113 270.55558 C 772.2113 278.38322 765.8657 284.72878 758.0381 284.72878 L 672.9987 284.72878 C 665.171 284.72878 658.8255 278.38322 658.8255 270.55558 L 658.8255 185.51615 C 658.8255 177.6885 665.171 171.34295 672.9987 171.34295 Z" fill="white"/>
            <path d="M 672.9987 171.34295 L 758.0381 171.34295 C 765.8657 171.34295 772.2113 177.6885 772.2113 185.51615 L 772.2113 270.55558 C 772.2113 278.38322 765.8657 284.72878 758.0381 284.72878 L 672.9987 284.72878 C 665.171 284.72878 658.8255 278.38322 658.8255 270.55558 L 658.8255 185.51615 C 658.8255 177.6885 665.171 171.34295 672.9987 171.34295 Z" stroke="black" stroke-linecap="round" stroke-linejoin="round" stroke-width="1"/>
          </g>
          <g id="Graphic_63">
            <path d="M 77.72305 298.902 L 77.72305 298.902 C 93.37837 298.902 106.06951 311.59316 106.06951 327.24847 L 106.06951 568.1934 C 106.06951 583.8487 93.37837 596.53984 77.72305 596.53984 L 77.72305 596.53984 C 62.067735 596.53984 49.376594 583.8487 49.376594 568.1934 L 49.376594 327.24847 C 49.376594 311.59316 62.067735 298.902 77.72305 298.902 Z" fill="white"/>
            <path d="M 77.72305 298.902 L 77.72305 298.902 C 93.37837 298.902 106.06951 311.59316 106.06951 327.24847 L 106.06951 568.1934 C 106.06951 583.8487 93.37837 596.53984 77.72305 596.53984 L 77.72305 596.53984 C 62.067735 596.53984 49.376594 583.8487 49.376594 568.1934 L 49.376594 327.24847 C 49.376594 311.59316 62.067735 298.902 77.72305 298.902 Z" stroke="black" stroke-linecap="round" stroke-linejoin="round" stroke-width="1"/>
          </g>
          <g id="Graphic_62">
            <path d="M 148.5892 341.4217 L 148.5892 341.4217 C 164.24452 341.4217 176.93566 354.11285 176.93566 369.76816 L 176.93566 568.1934 C 176.93566 583.8487 164.24452 596.53984 148.5892 596.53984 L 148.5892 596.53984 C 132.93388 596.53984 120.24274 583.8487 120.24274 568.1934 L 120.24274 369.76816 C 120.24274 354.11285 132.93388 341.4217 148.5892 341.4217 Z" fill="white"/>
            <path d="M 148.5892 341.4217 L 148.5892 341.4217 C 164.24452 341.4217 176.93566 354.11285 176.93566 369.76816 L 176.93566 568.1934 C 176.93566 583.8487 164.24452 596.53984 148.5892 596.53984 L 148.5892 596.53984 C 132.93388 596.53984 120.24274 583.8487 120.24274 568.1934 L 120.24274 369.76816 C 120.24274 354.11285 132.93388 341.4217 148.5892 341.4217 Z" stroke="black" stroke-linecap="round" stroke-linejoin="round" stroke-width="1"/>
          </g>
          <g id="Graphic_61">
            <path d="M 219.45535 383.9414 L 219.45535 383.9414 C 235.11066 383.9414 247.8018 396.63253 247.8018 412.28785 L 247.8018 568.1934 C 247.8018 583.8487 235.11066 596.53984 219.45535 596.53984 L 219.45535 596.53984 C 203.80003 596.53984 191.1089 583.8487 191.1089 568.1934 L 191.1089 412.28785 C 191.1089 396.63253 203.80003 383.9414 219.45535 383.9414 Z" fill="white"/>
            <path d="M 219.45535 383.9414 L 219.45535 383.9414 C 235.11066 383.9414 247.8018 396.63253 247.8018 412.28785 L 247.8018 568.1934 C 247.8018 583.8487 235.11066 596.53984 219.45535 596.53984 L 219.45535 596.53984 C 203.80003 596.53984 191.1089 583.8487 191.1089 568.1934 L 191.1089 412.28785 C 191.1089 396.63253 203.80003 383.9414 219.45535 383.9414 Z" stroke="black" stroke-linecap="round" stroke-linejoin="round" stroke-width="1"/>
          </g>
          <g id="Graphic_60">
            <path d="M 361.18765 383.9414 L 361.18765 383.9414 C 376.84297 383.9414 389.5341 396.63253 389.5341 412.28785 L 389.5341 568.1934 C 389.5341 583.8487 376.84297 596.53984 361.18765 596.53984 L 361.18765 596.53984 C 345.53233 596.53984 332.8412 583.8487 332.8412 568.1934 L 332.8412 412.28785 C 332.8412 396.63253 345.53233 383.9414 361.18765 383.9414 Z" fill="white"/>
            <path d="M 361.18765 383.9414 L 361.18765 383.9414 C 376.84297 383.9414 389.5341 396.63253 389.5341 412.28785 L 389.5341 568.1934 C 389.5341 583.8487 376.84297 596.53984 361.18765 596.53984 L 361.18765 596.53984 C 345.53233 596.53984 332.8412 583.8487 332.8412 568.1934 L 332.8412 412.28785 C 332.8412 396.63253 345.53233 383.9414 361.18765 383.9414 Z" stroke="black" stroke-linecap="round" stroke-linejoin="round" stroke-width="1"/>
          </g>
          <g id="Graphic_59">
            <path d="M 290.3215 383.9414 L 290.3215 383.9414 C 305.9768 383.9414 318.66795 396.63253 318.66795 412.28785 L 318.66795 568.1934 C 318.66795 583.8487 305.9768 596.53984 290.3215 596.53984 L 290.3215 596.53984 C 274.66618 596.53984 261.97504 583.8487 261.97504 568.1934 L 261.97504 412.28785 C 261.97504 396.63253 274.66618 383.9414 290.3215 383.9414 Z" fill="white"/>
            <path d="M 290.3215 383.9414 L 290.3215 383.9414 C 305.9768 383.9414 318.66795 396.63253 318.66795 412.28785 L 318.66795 568.1934 C 318.66795 583.8487 305.9768 596.53984 290.3215 596.53984 L 290.3215 596.53984 C 274.66618 596.53984 261.97504 583.8487 261.97504 568.1934 L 261.97504 412.28785 C 261.97504 396.63253 274.66618 383.9414 290.3215 383.9414 Z" stroke="black" stroke-linecap="round" stroke-linejoin="round" stroke-width="1"/>
          </g>
          <g id="Graphic_58">
            <path d="M 432.0538 454.80754 L 432.0538 454.80754 C 447.7091 454.80754 460.40025 467.4987 460.40025 483.154 L 460.40025 568.1934 C 460.40025 583.8487 447.7091 596.53984 432.0538 596.53984 L 432.0538 596.53984 C 416.3985 596.53984 403.70734 583.8487 403.70734 568.1934 L 403.70734 483.154 C 403.70734 467.4987 416.3985 454.80754 432.0538 454.80754 Z" fill="white"/>
            <path d="M 432.0538 454.80754 L 432.0538 454.80754 C 447.7091 454.80754 460.40025 467.4987 460.40025 483.154 L 460.40025 568.1934 C 460.40025 583.8487 447.7091 596.53984 432.0538 596.53984 L 432.0538 596.53984 C 416.3985 596.53984 403.70734 583.8487 403.70734 568.1934 L 403.70734 483.154 C 403.70734 467.4987 416.3985 454.80754 432.0538 454.80754 Z" stroke="black" stroke-linecap="round" stroke-linejoin="round" stroke-width="1"/>
          </g>
          <g id="Graphic_57">
            <path d="M 432.0538 298.902 L 432.0538 298.902 C 447.7091 298.902 460.40025 311.59316 460.40025 327.24847 L 460.40025 412.28785 C 460.40025 427.94317 447.7091 440.6343 432.0538 440.6343 L 432.0538 440.6343 C 416.3985 440.6343 403.70734 427.94317 403.70734 412.28785 L 403.70734 327.24847 C 403.70734 311.59316 416.3985 298.902 432.0538 298.902 Z" fill="white"/>
            <path d="M 432.0538 298.902 L 432.0538 298.902 C 447.7091 298.902 460.40025 311.59316 460.40025 327.24847 L 460.40025 412.28785 C 460.40025 427.94317 447.7091 440.6343 432.0538 440.6343 L 432.0538 440.6343 C 416.3985 440.6343 403.70734 427.94317 403.70734 412.28785 L 403.70734 327.24847 C 403.70734 311.59316 416.3985 298.902 432.0538 298.902 Z" stroke="black" stroke-linecap="round" stroke-linejoin="round" stroke-width="1"/>
          </g>
          <g id="Graphic_56">
            <path d="M 502.91994 454.80754 L 502.91994 454.80754 C 518.57526 454.80754 531.2664 467.4987 531.2664 483.154 L 531.2664 568.1934 C 531.2664 583.8487 518.57526 596.53984 502.91994 596.53984 L 502.91994 596.53984 C 487.2646 596.53984 474.5735 583.8487 474.5735 568.1934 L 474.5735 483.154 C 474.5735 467.4987 487.2646 454.80754 502.91994 454.80754 Z" fill="white"/>
            <path d="M 502.91994 454.80754 L 502.91994 454.80754 C 518.57526 454.80754 531.2664 467.4987 531.2664 483.154 L 531.2664 568.1934 C 531.2664 583.8487 518.57526 596.53984 502.91994 596.53984 L 502.91994 596.53984 C 487.2646 596.53984 474.5735 583.8487 474.5735 568.1934 L 474.5735 483.154 C 474.5735 467.4987 487.2646 454.80754 502.91994 454.80754 Z" stroke="black" stroke-linecap="round" stroke-linejoin="round" stroke-width="1"/>
          </g>
          <g id="Graphic_55">
            <path d="M 502.91994 298.902 L 502.91994 298.902 C 518.57526 298.902 531.2664 311.59316 531.2664 327.24847 L 531.2664 412.28785 C 531.2664 427.94317 518.57526 440.6343 502.91994 440.6343 L 502.91994 440.6343 C 487.2646 440.6343 474.5735 427.94317 474.5735 412.28785 L 474.5735 327.24847 C 474.5735 311.59316 487.2646 298.902 502.91994 298.902 Z" fill="white"/>
            <path d="M 502.91994 298.902 L 502.91994 298.902 C 518.57526 298.902 531.2664 311.59316 531.2664 327.24847 L 531.2664 412.28785 C 531.2664 427.94317 518.57526 440.6343 502.91994 440.6343 L 502.91994 440.6343 C 487.2646 440.6343 474.5735 427.94317 474.5735 412.28785 L 474.5735 327.24847 C 474.5735 311.59316 487.2646 298.902 502.91994 298.902 Z" stroke="black" stroke-linecap="round" stroke-linejoin="round" stroke-width="1"/>
          </g>
          <g id="Graphic_54">
            <path d="M 361.18765 298.902 L 361.18765 298.902 C 376.84296 298.902 389.5341 311.59316 389.5341 327.24847 L 389.5341 341.4217 C 389.5341 357.07702 376.84296 369.76816 361.18765 369.76816 L 361.18765 369.76816 C 345.53233 369.76816 332.8412 357.07702 332.8412 341.4217 L 332.8412 327.24847 C 332.8412 311.59316 345.53233 298.902 361.18765 298.902 Z" fill="white"/>
            <path d="M 361.18765 298.902 L 361.18765 298.902 C 376.84296 298.902 389.5341 311.59316 389.5341 327.24847 L 389.5341 341.4217 C 389.5341 357.07702 376.84296 369.76816 361.18765 369.76816 L 361.18765 369.76816 C 345.53233 369.76816 332.8412 357.07702 332.8412 341.4217 L 332.8412 327.24847 C 332.8412 311.59316 345.53233 298.902 361.18765 298.902 Z" stroke="black" stroke-linecap="round" stroke-linejoin="round" stroke-width="1"/>
          </g>
          <g id="Graphic_53">
            <path d="M 205.28212 327.24848 C 205.28212 327.2485 205.28212 327.2485 205.28212 327.2485 L 205.28212 341.42166 C 205.28212 357.077 217.97328 369.76816 233.62862 369.76816 L 290.32146 369.76816 C 305.9768 369.76816 318.66796 357.077 318.66796 341.42166 L 318.66796 327.2485 C 318.66796 311.59318 305.9768 298.902 290.32146 298.902 L 233.62862 298.902 C 230.72342 298.902 227.9203 299.33906 225.2814 300.151 C 223.50424 299.3486 221.53195 298.902 219.45535 298.902 L 134.41597 298.902 C 126.58831 298.902 120.24274 305.2476 120.24274 313.07524 C 120.24274 320.9029 126.58831 327.24847 134.41597 327.24847 Z" fill="white"/>
            <path d="M 205.28212 327.24848 C 205.28212 327.2485 205.28212 327.2485 205.28212 327.2485 L 205.28212 341.42166 C 205.28212 357.077 217.97328 369.76816 233.62862 369.76816 L 290.32146 369.76816 C 305.9768 369.76816 318.66796 357.077 318.66796 341.42166 L 318.66796 327.2485 C 318.66796 311.59318 305.9768 298.902 290.32146 298.902 L 233.62862 298.902 C 230.72342 298.902 227.9203 299.33906 225.2814 300.151 C 223.50424 299.3486 221.53195 298.902 219.45535 298.902 L 134.41597 298.902 C 126.58831 298.902 120.24274 305.2476 120.24274 313.07524 C 120.24274 320.9029 126.58831 327.24847 134.41597 327.24847 Z" stroke="black" stroke-linecap="round" stroke-linejoin="round" stroke-width="1"/>
          </g>
          <g id="Graphic_52">
            <path d="M 559.6128 298.902 L 758.0381 298.902 C 765.86575 298.902 772.2113 305.24757 772.2113 313.0752 L 772.2113 398.11465 C 772.2113 405.9423 765.86575 412.28784 758.0381 412.28784 L 559.6128 412.28784 C 551.7852 412.28784 545.43963 405.9423 545.43963 398.11465 L 545.43963 313.0752 C 545.43963 305.24757 551.7852 298.902 559.6128 298.902 Z" fill="white"/>
            <path d="M 559.6128 298.902 L 758.0381 298.902 C 765.86575 298.902 772.2113 305.24757 772.2113 313.0752 L 772.2113 398.11465 C 772.2113 405.9423 765.86575 412.28784 758.0381 412.28784 L 559.6128 412.28784 C 551.7852 412.28784 545.43963 405.9423 545.43963 398.11465 L 545.43963 313.0752 C 545.43963 305.24757 551.7852 298.902 559.6128 298.902 Z" stroke="black" stroke-linecap="round" stroke-linejoin="round" stroke-width="1"/>
          </g>
          <g id="Graphic_51">
            <path d="M 559.6128 426.4611 L 758.0381 426.4611 C 765.86575 426.4611 772.2113 432.80665 772.2113 440.6343 L 772.2113 582.36664 C 772.2113 590.1943 765.86575 596.53984 758.0381 596.53984 L 559.6128 596.53984 C 551.7852 596.53984 545.43963 590.1943 545.43963 582.36664 L 545.43963 440.6343 C 545.43963 432.80665 551.7852 426.4611 559.6128 426.4611 Z" fill="white"/>
            <path d="M 559.6128 426.4611 L 758.0381 426.4611 C 765.86575 426.4611 772.2113 432.80665 772.2113 440.6343 L 772.2113 582.36664 C 772.2113 590.1943 765.86575 596.53984 758.0381 596.53984 L 559.6128 596.53984 C 551.7852 596.53984 545.43963 590.1943 545.43963 582.36664 L 545.43963 440.6343 C 545.43963 432.80665 551.7852 426.4611 559.6128 426.4611 Z" stroke="black" stroke-linecap="round" stroke-linejoin="round" stroke-width="1"/>
          </g>
        </g>
      </g>
    </g>
  </g>
</svg>
